<svg aria-hidden="true" style="position: absolute; width: 0; height: 0; overflow: hidden;" version="1.1" xmlns="http://www.w3.org/2000/svg" xmlns:xlink="http://www.w3.org/1999/xlink">
<defs>
<symbol id="icon-Vector" viewBox="0 0 40 32">
<path  style="fill: var(--color1, #fff)" d="M16.36 0.207c-1.087 0.35-2.004 0.974-2.232 1.518l-0.096 0.228-1.507-0.007-0.196-0.402c-0.149-0.307-0.279-0.447-0.548-0.594l-0.352-0.193h-2.544c-3.337 0-3.758 0.166-3.758 1.486v0.372l-0.568 0.277c-2.092 1.022-3.731 3.041-4.379 5.392l-0.18 0.656v8.067c0 8.809-0.026 8.24 0.438 9.487 1.040 2.794 3.452 4.815 6.401 5.367 0.992 0.186 25.33 0.186 26.321 0 2.949-0.552 5.361-2.573 6.401-5.367 0.464-1.247 0.438-0.677 0.438-9.487v-8.067l-0.173-0.617c-0.907-3.231-3.232-5.433-6.519-6.179-0.491-0.111-1.137-0.139-3.966-0.168l-3.379-0.036-0.093-0.221c-0.229-0.545-1.213-1.202-2.296-1.531-0.854-0.26-6.393-0.244-7.213 0.021zM32.048 4.658c2.394 0.243 4.26 1.704 5.070 3.972l0.22 0.617 0.022 7.45c0.026 8.518 0.051 8.121-0.622 9.491-0.758 1.542-2.288 2.709-3.996 3.049-0.915 0.182-24.574 0.182-25.486 0-1.724-0.345-3.248-1.534-4.050-3.16-0.612-1.242-0.594-0.95-0.568-9.379l0.022-7.45 0.244-0.674c0.782-2.16 2.692-3.68 4.914-3.91 0.948-0.098 23.262-0.104 24.229-0.006v0.001zM7.614 5.511c-2.511 0.363-4.131 2.405-4.131 5.208v1.038h5.37l0.18-0.367c0.794-1.62 2.394-3.376 4.115-4.52 0.644-0.428 2.341-1.288 2.54-1.288 0.046 0 0.084-0.035 0.084-0.077 0-0.095-7.496-0.089-8.159 0.006v0.001zM24.227 5.484c0 0.036 0.132 0.112 0.293 0.168 2.456 0.851 5.449 3.524 6.47 5.777l0.149 0.328h5.378v-1.038c0-2.616-1.21-4.332-3.601-5.106-0.47-0.153-8.689-0.274-8.689-0.129l-0.001-0.001zM19.257 6.014c-9.124 0.878-13.551 10.766-7.982 17.824 6.157 7.803 19.027 3.923 19.834-5.979 0.54-6.631-5.306-12.474-11.852-11.845zM21.331 8.756c5.255 0.744 8.531 6.414 6.531 11.306-2.304 5.635-9.696 7.080-13.931 2.722-5.618-5.781-0.665-15.169 7.4-14.028zM19.098 10.058c-4.728 0.658-7.455 5.42-5.587 9.759 2.145 4.979 9.338 5.597 12.39 1.064 3.34-4.96-0.865-11.649-6.803-10.823zM22.173 11.128c0.913 0.28 1.596 0.934 1.612 1.541 0.037 1.402-2.802 1.357-3.752-0.058-0.722-1.076 0.564-1.967 2.14-1.483zM18.161 21.804c0.865 0.18 2.153 0.96 2.153 1.304 0 0.802-2.907 0.284-3.756-0.669-0.587-0.659 0.128-0.942 1.603-0.635zM33.53 24.799c-1.615 0.494-1.303 2.71 0.382 2.704 1.713-0.006 1.84-2.493 0.139-2.725-0.172-0.024-0.406-0.014-0.521 0.021v-0.001z"></path>
</symbol>
</defs>
</svg>
